<?xml version="1.0" encoding="iso-8859-1"?>
<!-- Generator: Adobe Illustrator 19.0.0, SVG Export Plug-In . SVG Version: 6.00 Build 0)  -->
<svg version="1.1" id="Layer_1" xmlns="http://www.w3.org/2000/svg" xmlns:xlink="http://www.w3.org/1999/xlink" x="0px" y="0px"
	 viewBox="0 0 512 512" style="enable-background:new 0 0 512 512;" xml:space="preserve">
<path style="fill:#FFCD54;" d="M0,256.006C0,397.402,114.606,512.004,255.996,512C397.394,512.004,512,397.402,512,256.006
	C512.009,114.61,397.394,0,255.996,0C114.606,0,0,114.614,0,256.006z"/>
<path style="fill:#F4BA41;" d="M512,256.005c0-4.199-0.116-8.372-0.317-12.523c-0.06-0.057-0.113-0.116-0.173-0.173
	c-0.517-0.549-155.507-155.539-156.057-156.057c-6.868-7.291-16.539-11.909-27.321-11.909h-165.6
	c-20.751,0-37.636,16.884-37.636,37.636v286.037c0,10.783,4.619,20.453,11.909,27.321c0.517,0.549,82.257,82.289,82.807,82.807
	c0.087,0.094,0.182,0.178,0.271,0.271c11.804,1.667,23.849,2.583,36.112,2.583C397.394,512.004,512,397.401,512,256.005z"/>
<g>
	<path style="fill:#F6F6F6;" d="M328.133,105.454h-165.6c-4.161,0-7.527,3.371-7.527,7.527v255.927c0,4.157,3.366,7.527,7.527,7.527
		h165.6c4.161,0,7.527-3.371,7.527-7.527V112.981C335.661,108.825,332.294,105.454,328.133,105.454z M320.606,361.382H170.061
		V120.509h150.546v240.874H320.606z"/>
	<path style="fill:#F6F6F6;" d="M328.133,75.345h-165.6c-20.752,0-37.636,16.885-37.636,37.636v286.037
		c0,20.752,16.885,37.636,37.636,37.636h165.6c20.752,0,37.636-16.885,37.636-37.636V112.981
		C365.77,92.23,348.885,75.345,328.133,75.345z M350.716,399.019c0,12.452-10.129,22.582-22.582,22.582h-165.6
		c-12.452,0-22.582-10.129-22.582-22.582V112.981c0-12.452,10.129-22.582,22.582-22.582h165.6c12.452,0,22.582,10.129,22.582,22.582
		V399.019z"/>
	<path style="fill:#F6F6F6;" d="M245.333,383.964c-8.299,0-15.055,6.752-15.055,15.055c0,8.303,6.755,15.055,15.055,15.055
		s15.055-6.752,15.055-15.055C260.388,390.716,253.632,383.964,245.333,383.964z"/>
</g>
<g>
</g>
<g>
</g>
<g>
</g>
<g>
</g>
<g>
</g>
<g>
</g>
<g>
</g>
<g>
</g>
<g>
</g>
<g>
</g>
<g>
</g>
<g>
</g>
<g>
</g>
<g>
</g>
<g>
</g>
</svg>
