<?xml version="1.0" encoding="iso-8859-1"?>
<!-- Generator: Adobe Illustrator 19.0.0, SVG Export Plug-In . SVG Version: 6.00 Build 0)  -->
<svg version="1.1" id="Layer_1" xmlns="http://www.w3.org/2000/svg" xmlns:xlink="http://www.w3.org/1999/xlink" x="0px" y="0px"
	 viewBox="0 0 512.001 512.001" style="enable-background:new 0 0 512.001 512.001;" xml:space="preserve">
<path style="fill:#FA6E51;" d="M512.001,256.006c0,141.395-114.606,255.998-255.996,255.994
	C114.606,512.004,0.001,397.402,0.001,256.006C-0.007,114.61,114.606,0,256.005,0C397.395,0,512.001,114.614,512.001,256.006z"/>
<path style="fill:#E8573F;" d="M506.937,306.836c-0.144-0.141-0.282-0.29-0.43-0.43c-0.512-0.547-198.499-198.531-199.052-199.052
	c-6.532-6.977-15.733-11.398-25.99-11.398H128.469c-19.825,0-35.953,16.148-35.953,35.998v248.094
	c0,10.331,4.43,19.594,11.417,26.164c0.518,0.553,99.776,99.809,100.325,100.325c0.094,0.099,0.195,0.19,0.289,0.289
	c16.622,3.391,33.83,5.174,51.457,5.174C379.99,512.002,483.362,423.874,506.937,306.836z"/>
<g>
	<path style="fill:#F6F6F6;" d="M208.293,368.371c-7.513,0-13.621,6.109-13.621,13.621c0,7.513,6.109,13.621,13.621,13.621
		s13.621-6.109,13.621-13.621C221.913,374.48,215.804,368.371,208.293,368.371z"/>
	<path style="fill:#F6F6F6;" d="M418.826,372.455l-14.279-36.722L390.078,224.07c-0.206-1.58-0.958-3.039-2.128-4.124
		l-70.691-65.459v-22.533c0-19.85-16.059-35.998-35.794-35.998H128.47c-19.826,0-35.954,16.148-35.954,35.998v248.094
		c0,19.85,16.128,35.998,35.954,35.998h152.995c19.737,0,35.794-16.148,35.794-35.998v-86.132l14.283,13.988
		c-5.906,12.819-18.502,48.544,7.139,78.516c1.347,1.577,3.255,2.384,5.178,2.384c1.566,0,3.139-0.539,4.422-1.636
		c2.86-2.444,3.196-6.743,0.748-9.6c-25.29-29.563-4.223-66.029-3.322-67.555c1.613-2.7,1.167-6.156-1.081-8.356l-58.005-56.807
		c-2.202-2.158-3.415-5.014-3.415-8.044c0-3.033,1.214-5.889,3.415-8.047c4.645-4.539,12.197-4.539,16.89,0.053l43.09,41.248
		c2.717,2.601,7.023,2.5,9.627-0.209c2.604-2.717,2.508-7.026-0.209-9.627l-38.759-37.109V173.05l59.628,55.217l14.259,110.037
		c0.069,0.545,0.206,1.081,0.405,1.593l14.578,37.493c1.047,2.697,3.621,4.347,6.352,4.347c0.818,0,1.652-0.149,2.464-0.465
		C418.451,379.907,420.19,375.961,418.826,372.455z M128.47,109.577h152.995c11.567,0,20.985,9.015,21.979,20.431H106.332
		C107.335,118.591,116.821,109.577,128.47,109.577z M281.465,402.423H128.47c-12.314,0-22.334-10.039-22.334-22.377v-25.296h197.502
		v25.296C303.638,392.384,293.692,402.423,281.465,402.423z M277.092,219.025c-4.838,4.739-7.505,11.054-7.505,17.777
		c0,6.721,2.667,13.036,7.505,17.774l26.546,25.999v60.555H106.136V143.629h197.502v14.083v0.009v55.574
		C294.673,210.137,284.263,211.998,277.092,219.025z"/>
</g>
<g>
</g>
<g>
</g>
<g>
</g>
<g>
</g>
<g>
</g>
<g>
</g>
<g>
</g>
<g>
</g>
<g>
</g>
<g>
</g>
<g>
</g>
<g>
</g>
<g>
</g>
<g>
</g>
<g>
</g>
</svg>
